# xmcd
#
# Track frame offsets: 
#        150
#        20602
#        34408
#        52263
#        67701
#        85667
#        117900
#        139964
#        186660
#        199560
#        229757
#        245662
#
# Disc length: 3721 seconds
#
# Revision: 7
# Processed by: cddbd v1.5.2PL0 Copyright (c) Steve Scherf et al.
# Submitted via: ExactAudioCopyFreeDBPlugin 1.0
#
DISCID=ad0e870c,b30e870c
DTITLE=Various Artist - White Boys Blues [CD 2)
DYEAR=1999
DGENRE=Blues
TTITLE0=Alex Conti - Drifting
TTITLE1=Toni McPhee - Drop Down Mama
TTITLE2=Savoy Brown - Baby Please
TTITLE3=Abi Wallenstein - Blues Harp Boogie
TTITLE4=Peter Green and Nigel Watson - Traveling Riverside Blues
TTITLE5=Snowy White - Looking For Somebody
TTITLE6=Bobby Murray - The Future Is Now
TTITLE7=Big Jim Sullivan and Maggie Bell - Blind Man
TTITLE8=Mitch Woods - Rocket 88
TTITLE9=Rory Gallagher - Leavin Town Blues
TTITLE10=Jack Bruce - Send For Me
TTITLE11=Alvin Lee - The Bluest Blues
EXTD=Year: 1999   [CD 2 from 2) YEAR: 1999
EXTT0=
EXTT1=
EXTT2=
EXTT3=
EXTT4=
EXTT5=
EXTT6=
EXTT7=
EXTT8=
EXTT9=
EXTT10=
EXTT11=
PLAYORDER=
